<svg version="1.1" id="Layer_1" xmlns="http://www.w3.org/2000/svg" xmlns:xlink="http://www.w3.org/1999/xlink" x="0px" y="0px"
	 width="100%" viewBox="0 0 1024 544" enable-background="new 0 0 1024 544" xml:space="preserve">
<path fill="#000000" opacity="1.000000" stroke="none" 
	d="
M717.309998,264.345337 
	C678.884033,291.971741 640.770569,319.420746 602.648132,346.857452 
	C595.218201,352.204865 587.783203,357.546326 580.290100,362.804413 
	C577.527893,364.742676 576.610657,366.816742 579.653564,369.056305 
	C592.387451,378.428589 605.194458,387.701569 617.988525,396.991882 
	C618.220215,397.160095 618.623291,397.092407 619.006958,397.142731 
	C620.861572,396.186859 620.825806,394.106812 621.555603,392.514313 
	C624.606140,385.857605 631.749573,381.489441 638.863281,382.081451 
	C646.996704,382.758362 653.494873,387.767944 655.307739,395.162994 
	C657.358398,403.527893 657.875061,412.544037 655.783386,420.400879 
	C654.163940,426.484100 650.834229,433.116333 646.673035,438.425201 
	C643.625244,442.313446 638.524170,442.657715 633.725891,441.284515 
	C629.150574,439.975098 626.383362,436.858368 625.498169,432.169250 
	C625.058655,429.840424 624.535339,427.622986 622.527405,426.041626 
	C620.246887,424.245636 619.387085,421.793304 619.650146,418.952423 
	C619.946899,415.747284 618.468140,413.727203 615.826599,412.002136 
	C600.064880,401.708557 584.335754,391.363007 568.711426,380.862732 
	C565.670166,378.818878 563.353149,378.727112 560.157532,380.643463 
	C550.983643,386.145111 540.758789,388.339020 530.202454,389.380219 
	C527.104980,389.685699 523.111877,388.621704 521.463928,392.527649 
	C519.663025,396.796051 521.593506,403.164551 525.168579,405.921082 
	C530.390869,409.947510 533.083801,415.295898 533.341125,421.800323 
	C533.525452,426.459045 534.043396,431.254852 533.218140,435.771240 
	C531.611450,444.563721 526.470825,452.276093 521.004639,458.640869 
	C514.730652,465.946228 502.448273,460.724548 500.849670,450.996796 
	C500.404541,448.288116 499.555573,446.339508 497.239594,444.890900 
	C495.484436,443.793152 494.241516,441.974579 493.883057,440.052856 
	C492.065399,430.307983 491.273224,420.563446 496.215393,411.377899 
	C497.061554,409.805206 498.275360,408.005371 499.783783,407.290527 
	C505.115967,404.763580 504.893921,400.254242 504.959320,395.473022 
	C505.014038,391.474274 503.468048,389.613525 499.548370,389.410400 
	C497.224548,389.289978 494.898041,389.029083 492.599182,388.664520 
	C488.996887,388.093262 485.754456,387.097748 483.251709,391.563446 
	C481.515839,394.660736 477.652710,394.878113 474.213776,393.563934 
	C470.825073,392.268829 468.761932,389.905914 468.484406,386.130157 
	C468.001465,379.558868 463.203491,377.238281 457.792572,380.823364 
	C443.079224,390.571960 428.379181,400.342346 413.566650,409.938538 
	C409.619415,412.495697 407.470917,415.346008 406.321259,420.305145 
	C404.896667,426.450226 401.525360,432.348877 398.050781,437.746094 
	C395.479401,441.740356 390.716583,442.829773 385.950012,441.693695 
	C380.838379,440.475372 377.278961,437.340912 376.285156,432.056030 
	C375.742218,429.168671 375.078369,426.720886 372.455200,424.913849 
	C370.818268,423.786163 369.920654,421.729584 369.885529,419.668213 
	C369.760803,412.349731 369.152527,404.991913 370.477142,397.733765 
	C372.279633,387.857361 378.462799,382.540985 388.325989,382.064423 
	C396.169952,381.685455 402.646301,386.695740 405.515594,395.348999 
	C405.773163,396.125793 406.099243,396.879852 406.747925,398.565399 
	C418.477356,389.894714 429.873871,381.470154 441.105042,373.167847 
	C443.807922,374.684479 443.279633,377.415436 445.216309,379.320282 
	C452.480530,376.158295 459.136047,371.644714 465.645050,366.817200 
	C473.440063,361.035950 479.986938,353.903992 487.074646,347.361084 
	C488.927399,345.650696 490.531830,345.098816 492.844940,346.164703 
	C505.098083,351.810822 517.560852,351.885376 530.252563,347.650360 
	C534.443909,346.251740 534.522583,346.487427 538.395996,349.262360 
	C538.706665,349.156738 539.220032,349.123962 539.295288,348.925232 
	C542.839478,339.568237 552.945679,335.685059 557.437988,327.020538 
	C560.058472,321.966339 562.326233,316.812561 564.237244,311.485809 
	C564.827026,309.841858 565.759338,307.411255 563.510620,306.674622 
	C561.239380,305.930573 558.020996,304.352875 556.319336,307.461243 
	C553.617920,312.395752 549.096313,313.690247 544.215881,314.153229 
	C538.583923,314.687469 533.999023,316.077209 530.219543,321.078796 
	C525.696167,327.064758 518.833679,328.789368 511.122284,327.964996 
	C511.965454,325.401611 514.084961,326.537262 515.216675,325.289795 
	C510.718567,323.370422 506.050140,324.068085 501.493774,323.936340 
	C499.212494,323.870422 498.828308,326.178345 497.828491,327.586060 
	C485.662262,344.715698 471.490112,359.793060 453.554718,371.034149 
	C452.036407,371.985748 450.623474,373.294708 448.338409,373.082092 
	C447.055908,370.508698 448.616882,368.354431 449.652588,366.242462 
	C458.109467,348.997009 469.771637,334.108551 483.338287,320.625519 
	C484.709167,319.263092 486.585266,318.251373 486.997009,316.010864 
	C485.443726,314.396454 483.350616,314.668884 481.451477,314.274811 
	C477.682159,313.492676 473.716858,312.739319 471.398163,309.339050 
	C468.933807,305.725067 465.839172,305.731964 462.079559,306.658417 
	C461.481354,312.530762 463.457214,317.439697 466.465576,322.192230 
	C470.480347,328.534546 470.339447,329.580963 465.477875,335.359222 
	C458.403412,343.767670 452.401367,352.908936 446.759216,363.292877 
	C440.264923,358.758545 434.141327,354.595673 428.134521,350.270630 
	C391.501129,323.893768 354.893768,297.480743 318.278870,271.078247 
	C305.849640,262.115692 293.354218,253.242661 281.025696,244.143555 
	C274.909302,239.629318 267.675323,240.529816 260.884766,239.464508 
	C253.169830,238.254166 245.351868,237.636261 237.559097,237.001389 
	C225.514374,236.020111 214.740707,231.162186 203.949432,226.319397 
	C202.746185,225.779404 201.635605,224.987579 200.569168,224.195312 
	C193.531403,218.966766 194.189270,211.563477 201.996521,207.608780 
	C210.125793,203.490921 218.772934,202.604797 227.750153,203.002029 
	C243.722427,203.708771 259.704681,204.210083 275.686005,204.687943 
	C303.160553,205.509460 330.639160,206.197845 358.113342,207.030838 
	C403.232605,208.398788 448.322327,210.859131 493.484100,210.639420 
	C501.094269,210.602386 501.304199,210.188171 501.723083,202.365112 
	C502.959930,179.266708 504.381775,156.178207 505.724762,133.085464 
	C505.864868,130.676773 506.737183,128.518250 508.115326,126.604927 
	C510.998413,122.602249 515.776794,122.807831 518.346069,127.052109 
	C519.655945,129.215927 520.238647,131.627151 520.390991,134.179535 
	C521.670898,155.614700 523.167542,177.038681 524.232605,198.484222 
	C524.835388,210.621078 524.525513,210.662903 536.357483,210.617569 
	C578.845947,210.454742 621.295105,208.604279 663.760925,207.504257 
	C685.240417,206.947861 706.710999,206.060944 728.198059,205.595856 
	C751.504333,205.091400 774.799194,204.003281 798.093933,203.047134 
	C805.657837,202.736649 813.095276,203.033798 820.219482,205.843170 
	C822.217224,206.630981 824.223450,207.557770 825.975586,208.779602 
	C832.183960,213.109055 832.155151,220.487518 825.541260,224.281876 
	C813.461060,231.212158 800.645508,236.098206 786.530029,237.186035 
	C775.914856,238.004105 765.338745,239.338516 754.750549,240.491165 
	C751.227661,240.874664 748.092896,242.077576 745.152588,244.268600 
	C736.074280,251.033691 726.810852,257.550415 717.309998,264.345337 
M357.651611,247.109863 
	C342.371979,246.096039 327.092346,245.082230 311.812683,244.068405 
	C312.931824,246.176605 314.205231,247.225952 315.536316,248.196213 
	C331.532227,259.856140 347.564880,271.466003 363.514221,283.189240 
	C366.567566,285.433533 369.192078,287.951233 372.840912,284.030884 
	C373.708252,283.099060 375.601471,282.890625 377.056946,282.773407 
	C392.140198,281.558746 407.206940,280.137024 422.343567,279.618439 
	C428.479889,279.408234 434.595734,278.601807 440.721130,278.069275 
	C443.171417,277.856232 444.725494,276.877106 444.827759,274.088318 
	C445.028748,268.608307 445.330719,263.128937 445.742401,257.660675 
	C446.071442,253.289627 444.401611,251.370331 439.824188,251.163589 
	C412.748444,249.940552 385.682068,248.510223 357.651611,247.109863 
M669.182373,253.712952 
	C667.148804,251.565674 670.702271,249.815613 669.616089,247.730148 
	C668.610229,246.901428 667.400757,247.087158 666.271729,247.143616 
	C639.004028,248.506622 611.739075,249.926270 584.469116,251.240891 
	C581.142029,251.401291 580.115967,253.036499 580.296753,256.031464 
	C580.637695,261.678925 581.184631,267.329224 581.171814,272.977264 
	C581.163513,276.632141 582.532043,277.975708 586.065308,278.207245 
	C602.504456,279.284607 618.950684,280.327118 635.356689,281.801056 
	C641.762451,282.376556 648.529114,281.427948 654.485046,284.303558 
	C657.351135,285.687378 659.191162,285.743134 661.659668,283.941620 
	C678.067566,271.967163 694.552124,260.097778 710.986633,248.159576 
	C711.977417,247.439865 713.409607,246.784393 712.738647,244.958664 
	C712.318420,244.774506 711.866516,244.390701 711.439270,244.416443 
	C701.474792,245.016785 691.513306,245.667160 681.550293,246.291946 
	C680.028687,246.387360 679.135742,247.343475 678.443970,248.514160 
	C676.501221,251.801559 673.462158,253.283066 669.182373,253.712952 
M584.761780,219.621704 
	C580.931213,217.261642 577.477966,216.602432 574.917542,221.455246 
	C574.414246,222.409149 573.346069,223.179535 572.372803,223.753632 
	C557.709778,232.402786 545.584961,243.935089 534.755554,256.912842 
	C532.775879,259.285248 530.719543,260.515289 527.483948,260.119293 
	C515.687012,258.675354 503.868195,259.523468 492.084961,260.364105 
	C485.465607,260.836334 478.801849,261.490265 472.497925,263.881317 
	C465.630188,266.486237 459.172241,269.483643 458.347870,278.156128 
	C458.247223,279.215057 457.618591,280.720245 456.791687,281.134491 
	C450.644684,284.214050 452.716583,289.851349 452.467316,294.688110 
	C452.370789,296.561676 453.727570,297.625183 456.234161,297.428741 
	C457.492859,287.903595 462.605530,281.415955 471.854340,278.498138 
	C466.449768,284.475128 461.263916,290.346588 462.227783,299.226807 
	C467.011688,299.747070 467.130981,299.772614 467.961945,295.892670 
	C469.011719,290.990997 471.925690,287.966583 476.641876,286.546967 
	C480.483032,285.390778 484.381989,284.364594 488.415405,284.644501 
	C491.985779,284.892303 494.711334,283.733154 497.418762,281.371124 
	C503.749634,275.847961 511.336609,274.045044 519.340637,276.391541 
	C523.179443,277.516937 524.746521,276.165375 526.566895,273.389191 
	C538.216919,255.621902 553.087952,240.986938 570.377625,228.741196 
	C571.838013,227.706863 573.264038,226.327316 576.152405,228.216782 
	C568.339783,249.881866 554.050171,267.217957 537.798889,283.243469 
	C539.716614,284.954529 541.488770,284.716492 543.081482,284.974609 
	C550.732361,286.214600 557.553040,288.351776 558.399780,297.762726 
	C558.555847,299.497009 559.976562,299.699860 561.407043,299.613068 
	C563.321838,299.496918 563.887512,298.300934 563.907776,296.571625 
	C563.977600,290.609375 561.013367,286.139191 556.947144,282.182831 
	C555.771545,281.039032 553.774597,280.446259 553.841919,277.903381 
	C559.411621,278.728424 562.567322,282.717926 566.763977,286.394348 
	C567.378845,279.924530 568.174500,273.755981 563.392700,269.854462 
	C558.722290,266.043793 559.832886,263.390625 562.826172,259.698914 
	C565.802856,256.027649 569.727722,252.427704 571.420166,248.585709 
	C573.805969,243.169418 576.796448,237.947983 578.834167,232.341629 
	C579.381470,230.835785 580.015503,228.892746 581.660645,228.373428 
	C586.114502,226.967438 585.771545,223.797028 584.761780,219.621704 
M725.752686,221.907562 
	C725.624084,218.720963 728.212402,219.905853 729.549255,219.846085 
	C752.822876,218.805405 776.103149,217.914246 799.378906,216.918167 
	C801.141357,216.842758 803.950317,217.946747 804.116394,214.874985 
	C804.285156,211.752960 801.825256,211.237717 799.247253,211.363434 
	C794.262878,211.606552 789.280518,211.929291 784.293213,212.069550 
	C747.509521,213.104080 710.724487,214.089233 673.940613,215.115128 
	C648.307068,215.830048 622.674683,216.586639 597.041626,217.318787 
	C594.830505,217.381943 592.315735,217.279785 592.223267,220.310669 
	C592.119812,223.701950 591.278809,228.097473 595.217957,229.520660 
	C598.935608,230.863800 603.246765,230.557770 607.360962,228.986740 
	C606.104065,226.131653 604.727539,223.605164 607.319092,221.307114 
	C608.528442,220.234726 610.054565,219.991379 611.514832,220.785492 
	C614.923157,222.639053 614.691467,225.764542 613.881958,229.180313 
	C615.880920,229.425430 618.063904,229.662872 618.174683,227.608398 
	C618.400635,223.419510 621.241516,224.028610 623.812012,223.786636 
	C636.436829,222.598175 649.134705,223.658234 661.744446,222.677826 
	C669.036255,222.110901 675.987976,222.438171 682.757263,225.334961 
	C684.712280,226.171524 686.686401,226.322540 687.791809,223.839600 
	C688.220520,222.876541 689.021484,222.202454 690.039917,222.009018 
	C697.617371,220.569733 705.849915,218.952606 712.689392,221.968704 
	C720.655518,225.481659 727.959839,224.123474 735.661804,223.430634 
	C732.599060,222.579727 729.351868,223.382156 725.752686,221.907562 
M380.501526,222.910019 
	C388.816589,223.215866 397.132629,223.497528 405.446167,223.840286 
	C408.464203,223.964722 411.362457,224.235275 413.589111,221.376297 
	C414.889984,219.706009 416.998047,219.831757 418.544250,221.117310 
	C420.310181,222.585510 421.376556,224.653763 422.057159,226.390594 
	C421.569794,228.344879 419.870453,228.355545 418.812927,229.948486 
	C422.494171,229.948486 425.805298,229.725861 429.074951,229.999283 
	C434.323547,230.438202 434.011932,226.670837 434.217926,223.445679 
	C434.443756,219.909378 433.491913,217.378128 429.036072,217.314972 
	C419.385834,217.178192 409.742493,216.617065 400.093048,216.347305 
	C370.971588,215.533157 341.847595,214.809387 312.726562,213.981705 
	C297.254181,213.541931 281.786743,212.930161 266.315399,212.451523 
	C253.171951,212.044891 240.026337,211.707092 226.880981,211.365829 
	C224.636230,211.307526 222.151215,211.374512 222.334152,214.507202 
	C222.509827,217.515732 225.120895,216.765732 226.977585,216.826447 
	C231.636841,216.978775 236.305344,216.892441 240.961044,217.103027 
	C269.024048,218.372253 297.081177,219.776550 325.147034,220.976852 
	C343.260254,221.751480 361.385010,222.254807 380.501526,222.910019 
M581.755432,319.061066 
	C581.259277,326.590302 580.763123,334.119537 580.249207,341.918457 
	C585.872986,339.845856 639.567322,300.272675 642.388733,296.187775 
	C623.408936,296.964264 604.690063,297.721466 585.972229,298.504669 
	C583.024658,298.628052 582.045471,300.432312 582.046082,303.172394 
	C582.047180,308.157471 581.927368,313.142548 581.755432,319.061066 
M445.175049,329.062347 
	C444.817810,321.419403 444.452667,313.776825 444.105621,306.133423 
	C443.781952,299.006073 443.525513,298.742889 436.316315,298.387543 
	C422.693390,297.716064 409.072418,297.001404 395.446472,296.398315 
	C391.526917,296.224854 387.593170,296.371735 383.665924,296.371735 
	C383.529633,296.709320 383.393311,297.046906 383.257019,297.384460 
	C403.683594,312.183563 424.110168,326.982666 445.179901,342.247742 
	C446.197815,337.184692 445.664459,333.578979 445.175049,329.062347 
M522.743347,418.840027 
	C524.130554,416.343811 523.178711,414.497894 521.247742,412.744385 
	C515.516663,407.539856 506.293915,408.835022 502.378601,415.742188 
	C498.618286,422.375946 499.488159,429.880707 501.028259,436.618683 
	C502.081909,441.228424 508.068146,440.594543 512.317444,440.682129 
	C517.090393,440.780518 522.348999,441.295807 525.426086,436.691284 
	C527.628540,433.395660 525.461304,422.365112 522.743347,418.840027 
M309.507599,252.033783 
	C303.188782,246.835571 295.521362,243.229584 291.093384,235.638382 
	C288.295593,238.213501 288.199982,240.182037 290.928925,242.107895 
	C292.558533,243.257919 294.116455,244.512100 295.770813,245.623978 
	C304.271942,251.337631 313.265625,256.436981 321.197235,262.851471 
	C332.898407,272.314484 345.716095,280.152374 357.629120,289.287445 
	C371.455841,299.889954 385.745117,309.887268 399.686920,320.342865 
	C404.688538,324.093781 410.414032,326.673859 415.061890,331.055481 
	C422.201508,337.786224 432.041290,340.855225 438.524628,348.548798 
	C439.524475,347.285217 439.286560,346.530762 438.807373,346.167297 
	C396.514221,314.085999 352.985657,283.700745 309.507599,252.033783 
M725.415894,248.895432 
	C731.351685,243.784439 739.934814,241.570511 743.308716,233.190857 
	C740.355408,231.815277 738.726685,232.362015 736.803040,234.470657 
	C734.356445,237.152481 732.793884,240.491592 729.698669,242.722656 
	C694.702942,267.948517 659.783447,293.280151 624.850525,318.593201 
	C616.993591,324.286560 609.163879,330.017609 601.321655,335.731293 
	C602.501221,336.215149 603.250854,335.921204 604.028259,335.779083 
	C609.603088,334.759949 612.107056,329.624451 616.257996,326.709320 
	C626.165894,319.751221 636.127625,312.857056 646.088379,305.991760 
	C652.131775,301.826477 657.379822,296.601562 663.591614,292.917328 
	C673.067749,287.296997 681.752502,280.442841 690.349487,273.866577 
	C701.595276,265.264069 713.367493,257.530518 725.415894,248.895432 
M523.568604,220.681488 
	C529.066528,220.684784 534.564453,220.687805 540.062378,220.691406 
	C553.144897,220.699966 553.144897,220.700089 555.317749,218.477020 
	C527.015442,218.477020 498.810211,218.477020 470.042877,218.477020 
	C471.744537,221.126984 473.854797,220.671814 475.710266,220.679443 
	C485.539642,220.719788 495.371643,220.815506 505.197632,220.626450 
	C509.029297,220.552719 510.611053,221.770157 510.466431,225.764954 
	C510.219391,232.587051 510.305817,239.424850 510.406555,246.253784 
	C510.438171,248.397690 509.638916,251.582993 513.218628,251.537750 
	C516.576477,251.495316 515.555725,248.423080 515.598999,246.501755 
	C515.741577,240.174042 515.657166,233.841202 515.658691,227.510330 
	C515.660339,220.767502 515.659851,220.767502 523.568604,220.681488 
M502.219482,286.650360 
	C495.770599,293.377838 494.373993,300.616730 498.569122,306.071564 
	C500.563110,304.659027 503.894623,305.429871 505.025818,302.936066 
	C506.324707,300.072449 508.093292,299.753967 510.895599,299.887024 
	C516.598083,300.157806 521.832397,295.164856 521.925903,289.873840 
	C523.545227,289.153625 524.744080,291.788269 526.474487,290.483490 
	C521.825378,282.291473 511.832855,280.496246 502.219482,286.650360 
M377.586029,398.457458 
	C377.488861,403.926910 377.599640,409.410767 377.221283,414.860687 
	C376.969788,418.483795 378.750610,419.460754 381.785980,419.707336 
	C385.591248,420.016418 387.800262,418.159607 388.601807,414.631104 
	C389.235596,411.841400 388.823608,409.095367 388.011047,406.303192 
	C386.614655,401.504883 388.066101,399.450317 392.703644,397.882935 
	C394.316010,397.337982 396.043793,395.999420 396.276764,394.058746 
	C396.489197,392.288940 394.787537,391.665039 393.439728,391.019928 
	C387.038147,387.955750 380.784332,390.631989 377.586029,398.457458 
M637.142151,398.621155 
	C638.683655,402.050537 639.426392,405.300598 637.541321,409.088013 
	C636.393066,411.395172 637.094788,414.359283 638.385559,416.814240 
	C640.101257,420.077087 643.092834,420.135925 646.192871,419.703644 
	C649.337097,419.265198 648.871399,416.744751 648.882080,414.662018 
	C648.907776,409.664764 649.064819,404.647064 648.690063,399.673706 
	C648.074951,391.511993 640.235107,387.509216 632.880554,391.789978 
	C634.213318,393.839600 635.542236,395.883209 637.142151,398.621155 
M515.109558,173.186813 
	C514.404419,160.339493 513.699280,147.492188 512.994141,134.644867 
	C512.343506,149.944168 511.246033,165.185074 510.340759,180.437057 
	C509.837891,188.909286 509.566650,197.395828 509.253998,205.878235 
	C509.201019,207.315735 508.938538,209.042999 510.857422,209.650162 
	C512.811951,210.268631 513.930725,208.983398 515.037170,207.659744 
	C516.167114,206.307953 516.651245,204.805328 516.565247,203.050369 
	C516.092590,193.409210 515.647827,183.766678 515.109558,173.186813 
M454.774902,259.729340 
	C455.363586,251.492752 455.405426,243.184570 457.803375,235.106415 
	C460.814606,242.605270 460.885834,250.668625 463.873993,258.050964 
	C462.116272,247.264526 460.358582,236.478073 458.503204,225.092377 
	C453.699341,230.730957 453.640839,249.003952 454.644104,263.063995 
	C454.706940,261.764526 454.738770,261.106018 454.774902,259.729340 
M570.528748,341.765869 
	C572.620117,340.529449 572.275269,338.236023 572.425293,336.446716 
	C573.074646,328.704437 573.413147,320.935791 573.836914,313.175201 
	C573.929993,311.470612 573.940552,309.615448 571.580383,309.540955 
	C568.543091,309.445190 569.199097,311.841248 569.423035,313.463379 
	C570.309082,319.880981 570.307495,326.314789 570.216125,332.766449 
	C570.174744,335.689148 568.558350,338.570007 570.528748,341.765869 
M449.335388,224.393967 
	C449.912720,222.253372 452.493286,219.447220 448.556458,218.427750 
	C446.040527,217.776215 442.235626,216.512741 440.928650,220.450455 
	C439.758240,223.976532 440.874420,227.842682 444.006927,229.585083 
	C448.359619,232.006210 446.672272,226.411240 448.555023,225.265564 
	C448.690826,225.182922 448.786102,225.033691 449.335388,224.393967 
M452.364136,314.949982 
	C452.322357,321.251221 452.744934,327.474182 455.627808,333.395691 
	C456.605072,326.908203 456.637360,320.475250 456.580383,314.043060 
	C456.567566,312.594513 456.652771,310.654266 454.659912,310.530823 
	C452.208313,310.378967 452.520538,312.515839 452.364136,314.949982 
M616.033569,287.670380 
	C605.281494,285.696350 594.409912,286.319366 583.583801,285.786621 
	C586.424438,288.633942 589.894104,287.327667 593.033264,287.510895 
	C600.630310,287.954285 608.207764,289.951569 616.033569,287.670380 
M417.590393,288.616394 
	C426.205414,287.949249 434.820465,287.282104 443.435486,286.614960 
	C432.921906,285.710724 422.491302,286.169952 411.570465,287.265137 
	C413.491150,288.727753 415.179169,288.517303 417.590393,288.616394 
M678.965210,241.531555 
	C679.778931,238.750061 679.521179,236.176224 677.705200,233.722778 
	C673.813477,235.178635 675.546204,238.616608 674.684631,240.989349 
	C674.257568,242.165588 673.890991,243.768051 675.572815,244.362198 
	C677.362427,244.994415 678.288818,243.829712 678.965210,241.531555 
M817.205078,212.922974 
	C811.432678,211.756592 810.964294,212.124603 812.320007,217.083450 
	C814.915466,216.701920 817.493958,216.276825 820.336304,214.769302 
	C819.173523,214.036209 818.501587,213.612549 817.205078,212.922974 
M295.044037,223.006546 
	C294.079132,223.065704 293.114227,223.124863 292.149323,223.184021 
	C297.208893,223.866791 302.268646,226.007034 308.109131,223.322296 
	C303.507782,221.232697 299.636475,222.708054 295.044037,223.006546 
M501.840210,358.910004 
	C501.713837,358.801788 501.602631,358.646393 501.456543,358.599335 
	C501.322754,358.556213 501.036804,358.589935 501.012878,358.658112 
	C499.775726,362.188232 500.003662,365.663879 501.442139,370.158997 
	C502.889923,365.963348 502.956329,362.749390 501.840210,358.910004 
M214.242859,213.096817 
	C211.360382,211.423492 209.181671,212.581024 206.923996,214.685577 
	C211.662567,216.630554 212.124420,216.561234 214.242859,213.096817 
M525.778564,366.795105 
	C525.505371,363.729614 526.484314,360.500183 524.554077,356.438904 
	C523.558899,361.637207 523.865417,365.550293 525.417725,369.430817 
	C525.530762,368.802124 525.643860,368.173431 525.778564,366.795105 
M476.833527,381.258484 
	C476.464813,382.274994 476.363007,383.275970 477.684113,383.580566 
	C478.933228,383.868561 479.940460,383.267761 480.580963,382.200989 
	C481.662415,380.399902 480.963898,379.126007 479.006195,378.010437 
	C478.373993,378.908813 477.740234,379.809387 476.833527,381.258484 
z"/>
<path fill="#000000" opacity="1.000000" stroke="none" 
	d="
M669.632935,161.255249 
	C665.506714,160.955002 662.280945,161.898651 660.026611,165.089691 
	C658.979248,166.572342 657.608093,167.260651 655.792053,167.258255 
	C627.982422,167.221573 600.172852,167.204803 572.363281,167.154678 
	C571.925171,167.153885 571.487732,166.792618 571.062073,166.604874 
	C571.007019,164.796829 572.376587,164.874161 573.458862,164.678909 
	C578.042175,163.852020 582.611633,162.905975 587.225342,162.302063 
	C591.892029,161.691193 595.398376,160.130676 598.070923,155.686035 
	C601.013916,150.791550 606.341797,148.939041 612.026123,149.926407 
	C615.079346,150.456741 616.857361,149.744064 618.875488,147.454620 
	C624.655640,140.897446 631.924255,137.845947 640.766541,139.587997 
	C643.519836,140.130417 645.312378,139.354095 647.114014,137.017487 
	C662.596924,116.936653 690.298401,119.529991 701.521484,142.133865 
	C702.953613,145.018250 704.423279,145.304352 707.328430,144.889709 
	C720.652771,142.987854 731.529663,148.842667 736.265198,160.150116 
	C737.090515,162.120728 738.022400,164.116226 737.305969,166.597458 
	C734.236633,167.690613 731.969543,167.935501 730.405273,163.871033 
	C725.822632,151.964127 713.774475,147.873947 702.586914,154.074875 
	C701.305054,154.785385 700.143127,155.858414 698.108276,155.562805 
	C697.662170,153.403992 697.295349,151.133514 696.717285,148.918137 
	C694.377991,139.952591 688.663818,134.062973 679.865845,131.440735 
	C670.851868,128.754120 662.696838,130.800171 655.796692,137.159988 
	C650.953796,141.623657 650.986023,143.034348 655.037720,148.527344 
	C655.332275,148.926697 655.594604,149.363831 655.787476,149.819168 
	C655.908936,150.105743 655.873047,150.458969 655.942627,151.107742 
	C653.353760,153.421844 651.116455,154.908066 647.903076,151.140228 
	C643.829956,146.364380 638.329651,144.526520 632.128723,146.368927 
	C625.680664,148.284775 621.844116,152.739182 620.442749,159.173141 
	C620.807617,159.648590 620.981018,160.109360 621.209167,160.138214 
	C631.639282,161.457565 642.107605,160.645172 652.560791,160.612564 
	C654.492065,160.606537 655.682983,158.815933 657.210693,157.844528 
	C663.094482,154.103287 669.460205,154.169907 674.463806,158.117310 
	C676.150024,159.447601 677.479248,161.043610 677.918640,163.950943 
	C674.903442,162.931915 672.470398,162.109619 669.632935,161.255249 
M614.160767,156.972763 
	C610.193726,155.698105 606.539734,155.534103 603.512878,160.043350 
	C608.371643,161.046417 612.611267,161.071671 616.871948,160.225586 
	C616.845764,158.431900 615.776917,157.901566 614.160767,156.972763 
z"/>
<path fill="#000000" opacity="1.000000" stroke="none" 
	d="
M255.003128,351.330139 
	C249.414352,351.330536 244.324631,351.330536 239.127426,351.330536 
	C238.755035,345.939087 241.213867,342.848846 244.321289,340.279144 
	C249.427521,336.056519 255.429718,334.229156 262.002594,335.057281 
	C264.483978,335.369873 266.068512,334.832245 267.572906,332.904938 
	C269.801025,330.050476 272.858948,327.726837 276.424591,327.941711 
	C281.136200,328.225647 283.427124,325.810242 286.121155,322.570740 
	C295.471863,311.326752 314.952942,312.348969 323.011627,324.533142 
	C325.084808,327.667633 327.335449,328.940186 330.880402,329.523468 
	C340.021179,331.027374 345.219513,337.056793 345.420135,345.225555 
	C345.527496,349.597534 344.121918,351.464417 339.401184,351.426361 
	C316.097229,351.238708 292.790955,351.338531 269.485504,351.336212 
	C264.824402,351.335754 260.163300,351.332001 255.003128,351.330139 
M334.023804,345.647583 
	C335.632782,345.503296 337.381683,346.069824 338.754333,344.754700 
	C338.486450,338.553467 334.472992,334.924438 327.433228,335.287903 
	C323.484314,335.491760 321.261780,334.813293 319.511841,330.724854 
	C316.730927,324.227875 311.078430,321.072418 303.919525,321.001068 
	C296.463898,320.926727 291.325226,324.562592 287.983765,331.063995 
	C287.240662,332.509735 287.016571,334.294495 285.250519,335.380249 
	C284.140381,334.969360 282.925568,334.480133 281.685211,334.067780 
	C277.233612,332.587738 273.407043,333.893341 271.620697,338.017120 
	C270.062500,341.614166 268.144165,341.967682 264.718109,341.493469 
	C259.223328,340.732941 253.622284,340.557343 248.126999,345.638519 
	C277.218964,345.638519 305.174255,345.638519 334.023804,345.647583 
z"/>
<path fill="#000000" opacity="1.000000" stroke="none" 
	d="
M775.363403,337.088501 
	C775.406189,340.052460 775.236450,342.516632 774.158752,344.862305 
	C773.177856,346.997192 771.826599,348.384247 769.258850,348.376801 
	C749.106201,348.318237 728.953369,348.312378 708.800659,348.259766 
	C708.182556,348.258148 707.565369,347.923645 707.011658,347.762848 
	C706.614014,341.429016 710.781860,336.207275 717.748718,334.913116 
	C720.620178,334.379700 722.573853,333.235992 724.327637,331.018677 
	C725.425720,329.630493 726.993530,328.076172 728.599304,327.720856 
	C735.306946,326.236633 740.737793,322.230164 746.765808,319.414673 
	C759.942627,313.260254 774.359070,322.345428 775.363403,337.088501 
M768.732666,333.825073 
	C763.369446,321.681976 750.560913,319.829407 742.703796,330.204681 
	C741.125854,332.288330 739.630798,332.786194 737.241638,332.358612 
	C733.519470,331.692444 729.929199,332.535461 728.162659,336.029266 
	C726.492065,339.333191 724.376648,340.744720 720.771790,340.447327 
	C719.507385,340.343018 718.155212,340.752533 716.757385,342.294128 
	C718.580505,342.383789 719.999268,342.508453 721.418579,342.514832 
	C735.068726,342.576172 748.718994,342.628265 762.369202,342.660278 
	C769.182678,342.676270 770.047913,341.579193 768.732666,333.825073 
z"/>
</svg>